<?xml version="1.0" encoding="utf-8"?>
<!-- Generator: Adobe Illustrator 16.0.3, SVG Export Plug-In . SVG Version: 6.00 Build 0)  -->
<!DOCTYPE svg PUBLIC "-//W3C//DTD SVG 1.1//EN" "http://www.w3.org/Graphics/SVG/1.1/DTD/svg11.dtd">
<svg version="1.1" id="Capa_1" xmlns="http://www.w3.org/2000/svg" xmlns:xlink="http://www.w3.org/1999/xlink" x="0px" y="0px"
	 width="190px" height="60px" viewBox="0 0 190 60" enable-background="new 0 0 190 60" xml:space="preserve">
<path fill="#FCFCFC" d="M72.621,50.7c0,1.877-1.386,3.245-3.285,3.245h-2.451v-6.477h2.451C71.242,47.469,72.621,48.829,72.621,50.7
	 M71.186,50.7c0-1.14-0.771-1.931-1.884-1.931h-1.015v3.875h1.015C70.415,52.646,71.186,51.832,71.186,50.7"/>
<rect x="76.517" y="47.469" fill="#FCFCFC" width="1.402" height="6.477"/>
<path fill="#FCFCFC" d="M88.467,50.563c-0.006,2.031-1.361,3.524-3.308,3.524c-1.907,0-3.355-1.433-3.355-3.373
	c0-1.938,1.411-3.385,3.329-3.385c1.609,0,2.946,1.017,3.248,2.466h-1.445c-0.277-0.693-0.962-1.129-1.776-1.129
	c-1.147,0-1.935,0.837-1.935,2.048c0,1.198,0.768,2.035,1.935,2.035c0.835,0,1.562-0.444,1.802-1.112h-1.941v-1.074H88.467z"/>
<rect x="92.328" y="47.469" fill="#FCFCFC" width="1.4" height="6.477"/>
<polygon fill="#FCFCFC" points="102.453,48.77 100.652,48.77 100.652,53.945 99.25,53.945 99.25,48.77 97.451,48.77 97.451,47.469 
	102.453,47.469 "/>
<path fill="#FCFCFC" d="M109.395,52.719h-2.576l-0.443,1.227h-1.486l2.535-6.477h1.325l2.619,6.477h-1.521L109.395,52.719z
	 M107.254,51.497h1.699l-0.854-2.315L107.254,51.497z"/>
<polygon fill="#FCFCFC" points="118.852,52.646 118.852,53.945 114.964,53.945 114.964,47.469 116.365,47.469 116.365,52.646 "/>
<polygon fill="#FCFCFC" points="128.68,48.771 128.68,50.197 130.907,50.197 130.907,51.465 128.68,51.465 128.68,53.945 
	127.279,53.945 127.279,47.469 131.146,47.469 131.146,48.771 "/>
<path fill="#FCFCFC" d="M138.406,52.719h-2.577l-0.442,1.227h-1.488l2.539-6.477h1.322l2.62,6.477h-1.521L138.406,52.719z
	 M136.266,51.497h1.699l-0.854-2.315L136.266,51.497z"/>
<path fill="#FCFCFC" d="M146.678,54.084c-1.9,0-3.344-1.455-3.344-3.369c0-1.927,1.441-3.385,3.344-3.385
	c1.575,0,2.834,1.042,3.135,2.579h-1.405c-0.265-0.765-0.912-1.242-1.729-1.242c-1.095,0-1.924,0.883-1.924,2.048
	s0.829,2.033,1.924,2.033c0.854,0,1.51-0.516,1.743-1.336h1.414C149.54,53.016,148.283,54.084,146.678,54.084L146.678,54.084z"/>
<polygon fill="#FCFCFC" points="157.969,48.77 156.169,48.77 156.169,53.945 154.768,53.945 154.768,48.77 152.965,48.77 
	152.965,47.469 157.969,47.469 "/>
<path fill="#FCFCFC" d="M161.098,50.708c0-1.923,1.479-3.379,3.457-3.379c1.969,0,3.438,1.448,3.438,3.379s-1.47,3.38-3.438,3.38
	C162.578,54.088,161.098,52.631,161.098,50.708 M166.575,50.708c0-1.177-0.867-2.058-2.021-2.058c-1.154,0-2.035,0.892-2.035,2.058
	c0,1.165,0.881,2.058,2.035,2.058C165.708,52.766,166.575,51.882,166.575,50.708"/>
<path fill="#FCFCFC" d="M174.168,51.734h-0.896v2.211h-1.402v-6.477h2.615c1.295,0,2.263,0.893,2.263,2.143
	c0,0.849-0.464,1.539-1.181,1.886L177,53.945h-1.564L174.168,51.734z M173.271,50.439h1.119c0.586,0,0.938-0.353,0.938-0.838
	c0-0.483-0.352-0.838-0.938-0.838h-1.119V50.439z"/>
<polygon fill="#FCFCFC" points="183.514,51.332 183.514,53.945 182.076,53.945 182.076,51.322 179.816,47.469 181.307,47.469 
	182.805,50.061 184.299,47.469 185.792,47.469 "/>
<path fill="#CC6031" d="M59.079,24.81c0,0,1.415-2.495,2.064-5.094c0.649-2.598,0.26-5.923,0.26-5.923s1.299-0.183,1.473-2.695
	c0.173-2.512-0.736-3.334-2.079-3.377c-1.342-0.043-2.641,0.78-2.165,3.638c0,0-1.819-0.52-1.905,0.758
	c-0.087,1.277,0,2.056,2.9,2.1c0,0,0.508,4.909-1.262,7.997l-1.585,1.789l0.942,1.479L59.079,24.81z"/>
<path fill="#D86C3B" d="M12.772,26.439c0,0-4.904,2.599-6.658,8.186c0,0-1.754-0.066-2.696,1.816
	c-0.942,1.885-1.17,3.313,0.454,3.931C5.496,40.988,7.055,40.6,7.315,38.1c0,0,0.942,0.975,1.981,0.357
	c1.04-0.618,1.396-2.178-1.332-3.378c0,0,1.234-3.769,4.384-5.685L12.772,26.439z"/>
<path fill="#D86C3B" d="M45.64,45.906l-2.209,7.023c0,0,4.63-0.433,5.174,2.166c0.543,2.6-1.622,3.117-4.394,2.641
	c-2.771-0.477-4.764-0.908-3.507-3.592c1.256-2.687,2.425-7.883,2.425-7.883L45.64,45.906z"/>
<path fill="#D86C3B" d="M28.881,47.215v6.842c0,0,1.473,2.166-1.386,3.205c-2.857,1.038-6.495,1.082-6.452-1.17
	c0.043-2.251,1.603-3.464,5.673-2.988v-6.235"/>
<path fill="#EBB47C" d="M32.577,49.393c-6.325,0.047-11.464-1.397-14.491-3.486c1.096-0.475,2.349-0.977,3.765-1.484
	C24.375,46.531,27.875,48.374,32.577,49.393"/>
<path fill="#FCCC9B" d="M35.433,40.807c8.985-1.721,15.373-1.076,19.426-0.068c-2.652,2.955-6.945,5.65-13.64,7.717
	c-3.048,0.626-5.951,0.915-8.641,0.938c-4.702-1.018-8.202-2.859-10.726-4.971C25.332,43.171,29.81,41.881,35.433,40.807"/>
<path fill="#FBDBB2" d="M54.858,40.738c0.582,0.145,1.116,0.295,1.602,0.449c-1.679,1.996-4.07,3.705-7.378,4.965
	c-2.693,1.027-5.328,1.779-7.864,2.302C47.914,46.389,52.207,43.691,54.858,40.738"/>
<path fill="#FDE3BE" d="M44.864,8.849c-0.081,0.014-0.163,0.022-0.245,0.032c-1.442-0.62-2.849-1.001-4.121-1.095
	c-5.262-0.39-5.11-2.469-6.625-3.486c-0.681-0.457-1.68-0.206-2.574,0.208c0.739-0.766,1.403-1.315,1.934-1.291
	c1.429,0.064,2.382,0.78,2.923,1.84c0.542,1.061,4.374,1.841,5.586,2.057c0,0,1.286,0.328,3.141,1.087
	C44.963,8.419,44.978,8.649,44.864,8.849"/>
<path fill="#FBCD99" d="M33.873,4.3c1.515,1.017,1.363,3.096,6.625,3.486c1.272,0.094,2.678,0.476,4.121,1.096
	c-0.513,0.065-1.033,0.067-1.545-0.003c-0.042,0.735,0.012,1.476,0.16,2.197c-0.702-0.014-1.246-0.863-1.932-0.714
	c-0.306,0.066-0.529,0.316-0.755,0.531c-0.584,0.553-1.472,0.944-2.184,0.571c-0.429-0.225-0.764-0.709-1.248-0.689
	c-0.363,0.015-0.648,0.323-0.808,0.65c-0.158,0.327-0.235,0.692-0.419,1.005c-0.063,0.106-0.145,0.21-0.262,0.251
	c-0.244,0.083-0.473-0.147-0.628-0.352l-0.685-0.902c-0.115-0.15-0.25-0.314-0.438-0.338c-0.24-0.03-0.439,0.176-0.58,0.372
	c-0.55,0.76-0.947,1.683-1.743,2.181c-0.25,0.157-0.627,0.241-0.805,0.005c-0.062-0.082-0.084-0.186-0.104-0.287
	c-0.145-0.704-0.289-1.408-0.432-2.112c-0.772,0.085-1.083,1.042-1.708,1.503c-0.208,0.154-0.488,0.253-0.727,0.154
	c-0.375-0.156-0.423-0.661-0.409-1.066c0.014-0.405-0.024-0.908-0.396-1.073c-0.409-0.183-0.827,0.202-1.168,0.491
	c-0.228,0.193-0.48,0.355-0.749,0.483c4.991-4.238,6.243-7.233,6.243-7.233C32.193,4.093,33.192,3.843,33.873,4.3"/>
<path fill="#EBB47C" d="M25.057,11.741c-0.319,0.153-0.661,0.26-1.011,0.312c0.132-0.403,0.263-0.805,0.395-1.209
	c0.022-0.067,0.044-0.141,0.019-0.208c-0.049-0.129-0.226-0.136-0.363-0.12c-0.162,0.019-0.324,0.038-0.485,0.057
	c1.542-0.993,2.799-1.568,3.582-2.029c1.389-0.817,2.854-2.738,4.107-4.036C31.299,4.508,30.048,7.502,25.057,11.741"/>
<path fill="#E38563" d="M56.218,20.475c-2.2-5.335-7.076-9.648-11.599-11.593c0.082-0.01,0.164-0.019,0.245-0.032
	c0.114-0.2,0.1-0.431,0.02-0.648c3.798,1.552,9.983,4.906,12.384,10.93c2.707,6.791,4.441,15.82-0.807,22.058
	c-0.486-0.155-1.02-0.307-1.602-0.451C61.095,33.786,58.252,25.41,56.218,20.475"/>
<path fill="#D86C3B" d="M26.974,10.767c0.371,0.166,0.41,0.667,0.396,1.073c-0.014,0.405,0.034,0.91,0.409,1.066
	c0.24,0.099,0.518,0,0.727-0.154c0.625-0.461,0.936-1.418,1.708-1.502c0.144,0.704,0.287,1.407,0.432,2.111
	c0.02,0.101,0.042,0.205,0.104,0.287c0.178,0.236,0.555,0.152,0.805-0.005c0.796-0.498,1.192-1.42,1.743-2.181
	c0.141-0.196,0.34-0.402,0.58-0.372c0.188,0.024,0.323,0.188,0.438,0.338l0.685,0.902c0.155,0.205,0.385,0.435,0.628,0.352
	c0.117-0.041,0.199-0.145,0.262-0.251c0.184-0.313,0.261-0.678,0.419-1.005c0.159-0.327,0.444-0.636,0.808-0.65
	c0.484-0.02,0.819,0.464,1.248,0.689c0.712,0.373,1.6-0.019,2.184-0.571c0.226-0.214,0.449-0.464,0.755-0.531
	c0.686-0.149,1.23,0.7,1.932,0.713c-0.148-0.72-0.203-1.461-0.16-2.196c0.512,0.07,1.032,0.069,1.545,0.003
	c4.523,1.945,9.399,6.258,11.599,11.593c2.035,4.935,4.877,13.312-1.359,20.264c-4.053-1.008-10.44-1.652-19.426,0.068
	c-5.623,1.073-10.101,2.363-13.582,3.613c-3.154-2.637-4.787-5.688-5.34-8.059c-1.177-5.045-2.471-10.125-0.168-14.895
	c1.702-3.526,5.239-6.989,6.92-8.28c0.647-0.497,1.242-0.979,1.794-1.447c0.269-0.128,0.521-0.29,0.749-0.483
	C26.147,10.968,26.564,10.583,26.974,10.767"/>
<path fill="#CC6031" d="M13.486,21.99c3.563-6.415,7.317-9.609,10.125-11.417c0.161-0.019,0.324-0.038,0.485-0.057
	c0.137-0.016,0.314-0.01,0.364,0.12c0.025,0.066,0.002,0.14-0.02,0.208c-0.132,0.404-0.263,0.806-0.395,1.209
	c0.35-0.051,0.692-0.159,1.011-0.312c-0.552,0.468-1.147,0.951-1.793,1.447c-1.681,1.291-5.219,4.753-6.92,8.28
	c-2.303,4.771-1.009,9.85,0.168,14.895c0.553,2.369,2.187,5.422,5.34,8.059c-1.416,0.51-2.668,1.01-3.764,1.484
	c-0.038-0.023-0.081-0.049-0.118-0.076C12.642,42.061,7.965,31.928,13.486,21.99"/>
<path fill="#DD7E48" d="M44.211,12.117c1.583,1.823,3.042,3.75,4.404,5.748c1.352,2.005,2.632,4.071,3.582,6.345
	c0.23,0.571,0.43,1.162,0.561,1.786c0.061,0.306,0.105,0.606,0.159,0.909c0.044,0.304,0.082,0.606,0.117,0.909
	c0.122,1.213,0.195,2.424,0.209,3.635c0.039,2.42-0.065,4.835-0.328,7.234c-0.067-2.412-0.136-4.815-0.29-7.209
	c-0.087-1.196-0.173-2.391-0.336-3.571l-0.129-0.88c-0.053-0.289-0.101-0.585-0.16-0.868c-0.122-0.554-0.315-1.107-0.538-1.65
	c-0.436-1.093-0.984-2.154-1.557-3.202c-0.567-1.052-1.19-2.076-1.808-3.104C46.842,16.153,45.532,14.136,44.211,12.117"/>
<path fill="#DD7E48" d="M38.95,12.766c0.839,1.967,1.58,3.97,2.263,5.994c0.681,2.027,1.313,4.065,1.772,6.181l0.08,0.399
	l0.061,0.41c0.048,0.274,0.069,0.541,0.097,0.81c0.049,0.537,0.093,1.07,0.125,1.604c0.055,1.069,0.11,2.136,0.128,3.204
	c0.051,2.135,0.051,4.271-0.045,6.405c-0.234-2.125-0.405-4.25-0.573-6.375c-0.092-1.06-0.16-2.122-0.26-3.179
	c-0.094-1.06-0.166-2.114-0.39-3.121c-0.205-1.027-0.473-2.055-0.747-3.08c-0.265-1.029-0.56-2.05-0.838-3.078
	C40.054,16.89,39.478,14.837,38.95,12.766"/>
<path fill="#DD7E48" d="M32.974,13.793c-0.047,2.09-0.101,4.171-0.113,6.25c0.001,1.039-0.008,2.077,0.027,3.113
	c0.019,1.035,0.064,2.069,0.152,3.095c0.073,1.022,0.205,2.065,0.312,3.097l0.33,3.105c0.221,2.07,0.435,4.146,0.597,6.229
	c-0.488-2.033-0.874-4.086-1.209-6.146c-0.335-2.063-0.622-4.123-0.818-6.22c-0.158-2.104-0.138-4.204-0.006-6.293
	C32.375,17.933,32.601,15.852,32.974,13.793"/>
<path fill="#DD7E48" d="M27.972,13.793c-0.785,0.889-1.476,1.848-2.089,2.848c-0.615,0.999-1.15,2.042-1.585,3.123
	c-0.869,2.157-1.347,4.467-1.274,6.774c0.005,0.572,0.065,1.165,0.1,1.748c0.048,0.584,0.112,1.168,0.174,1.752
	c0.128,1.167,0.315,2.327,0.515,3.485c0.218,1.154,0.46,2.307,0.753,3.449c0.287,1.144,0.612,2.277,1.002,3.398
	c-0.552-1.053-0.981-2.165-1.375-3.288c-0.383-1.128-0.712-2.272-0.985-3.435c-0.131-0.582-0.265-1.162-0.364-1.752
	c-0.115-0.586-0.198-1.176-0.29-1.767c-0.154-1.187-0.272-2.364-0.322-3.574c-0.029-1.213,0.093-2.429,0.344-3.613
	c0.133-0.591,0.289-1.176,0.486-1.747c0.091-0.288,0.202-0.569,0.309-0.851c0.119-0.277,0.231-0.557,0.362-0.828
	c0.5-1.095,1.126-2.126,1.83-3.093C26.277,15.468,27.062,14.559,27.972,13.793"/>
<path fill="#DD7E48" d="M22.62,13.793c-0.962,0.89-1.858,1.841-2.69,2.839c-0.837,0.993-1.599,2.045-2.276,3.143
	c-0.33,0.554-0.641,1.117-0.923,1.692c-0.272,0.58-0.533,1.166-0.729,1.772c-0.056,0.15-0.1,0.302-0.146,0.455
	c-0.044,0.152-0.097,0.303-0.135,0.458c-0.076,0.308-0.159,0.614-0.209,0.927c-0.067,0.31-0.098,0.625-0.139,0.938
	c-0.02,0.156-0.022,0.314-0.033,0.471c-0.01,0.158-0.023,0.314-0.017,0.472l-0.001,0.473c0.004,0.157,0.02,0.314,0.028,0.471
	c0.013,0.31,0.064,0.639,0.099,0.959c0.04,0.322,0.07,0.645,0.12,0.966l0.138,0.964c0.192,1.286,0.425,2.564,0.691,3.839
	c0.546,2.544,1.203,5.072,2.025,7.56c-0.576-1.178-1.047-2.406-1.487-3.645c-0.43-1.24-0.812-2.5-1.14-3.773l-0.241-0.957
	l-0.212-0.965c-0.074-0.32-0.134-0.646-0.196-0.969c-0.06-0.322-0.131-0.646-0.182-0.971c-0.108-0.649-0.208-1.302-0.286-1.956
	c-0.038-0.33-0.092-0.647-0.11-0.991c-0.012-0.169-0.029-0.338-0.035-0.508l-0.002-0.509c-0.005-0.17,0.009-0.339,0.022-0.508
	c0.014-0.169,0.019-0.338,0.041-0.506c0.046-0.335,0.083-0.672,0.157-1.002c0.126-0.664,0.313-1.313,0.545-1.943
	c0.467-1.259,1.095-2.447,1.838-3.546c0.375-0.549,0.768-1.083,1.187-1.594c0.421-0.51,0.862-1.002,1.32-1.476
	C20.566,15.434,21.545,14.548,22.62,13.793"/>
<path d="M48.336,20.736c-0.281-1.207-1.21-2.295-2.377-2.705c-0.862-0.303-1.952-0.281-2.712,0.271
	c-0.613,0.446-0.969,1.142-1.132,1.869c-0.1,0.442-0.158,0.917-0.13,1.371c0.04,0.655,1.064,0.66,1.024,0
	c-0.005-0.087-0.004-0.175-0.002-0.263c0.001-0.091,0.006-0.183,0.013-0.273c0.003-0.055,0.009-0.109,0.015-0.163
	c0.003-0.023,0.005-0.046,0.008-0.069c0.011-0.104-0.021,0.11,0.003-0.026c0.049-0.275,0.111-0.541,0.205-0.805
	c0.005-0.016,0.062-0.147,0.013-0.037c0.012-0.026,0.023-0.054,0.036-0.079c0.033-0.064,0.064-0.13,0.101-0.193
	s0.077-0.124,0.118-0.185c0.077-0.116-0.042,0.046,0.013-0.019c0.032-0.04,0.066-0.079,0.102-0.116
	c0.188-0.196,0.404-0.326,0.685-0.398c0.318-0.08,0.746-0.068,1.111,0.023c0.32,0.08,0.692,0.266,0.899,0.438
	c0.121,0.1,0.232,0.209,0.336,0.325c0.026,0.029,0.051,0.06,0.077,0.089c-0.004-0.005,0.09,0.115,0.045,0.057
	c-0.042-0.058,0.043,0.061,0.041,0.057c0.025,0.036,0.05,0.071,0.073,0.108c0.089,0.135,0.167,0.274,0.238,0.417
	c0.031,0.062,0.059,0.125,0.087,0.188c-0.051-0.116-0.005-0.009,0.016,0.045c0.042,0.111,0.082,0.225,0.108,0.341
	C47.499,21.65,48.486,21.378,48.336,20.736"/>
<path d="M33.052,22.337c-0.473-1.044-1.386-2.083-2.505-2.417c-0.88-0.262-1.832-0.021-2.528,0.559
	c-0.574,0.477-0.923,1.197-1.118,1.905c-0.12,0.435-0.201,0.9-0.207,1.352c-0.01,0.66,1.014,0.66,1.023,0
	c0.001-0.083,0.008-0.168,0.015-0.252c0.004-0.046,0.009-0.091,0.014-0.137c0.013-0.13-0.012,0.062,0.003-0.023
	c0.02-0.125,0.04-0.251,0.066-0.374c0.06-0.281,0.14-0.562,0.254-0.826c-0.032,0.072,0.058-0.119,0.071-0.146
	c0.03-0.06,0.062-0.117,0.096-0.175c0.101-0.171,0.145-0.236,0.245-0.349c0.057-0.064,0.117-0.126,0.181-0.184
	c0.022-0.021,0.15-0.122,0.1-0.085c0.131-0.095,0.314-0.194,0.41-0.229c0.322-0.119,0.668-0.15,0.942-0.09
	c0.604,0.131,1.036,0.513,1.459,1.028c0.021,0.024,0.04,0.049,0.059,0.074c-0.062-0.08,0.018,0.025,0.029,0.042
	c0.05,0.07,0.099,0.139,0.146,0.209c0.065,0.1,0.128,0.202,0.188,0.307c0.061,0.106,0.12,0.214,0.171,0.327
	c0.114,0.251,0.479,0.313,0.701,0.183C33.127,22.886,33.167,22.59,33.052,22.337"/>
<path fill="#E3395D" d="M49.202,26.003c0.199,0.129,0.328,0.396,0.226,0.609c-0.06,0.126-0.185,0.207-0.306,0.276
	c-0.721,0.41-1.587,0.62-2.393,0.423c-0.218-0.054-0.454-0.162-0.518-0.377c-0.051-0.17,0.028-0.354,0.138-0.492
	c0.345-0.43,0.863-0.434,1.355-0.546C48.148,25.795,48.801,25.745,49.202,26.003"/>
<path fill="#E3395D" d="M28.656,28.77c0.223-0.004,0.458-0.004,0.652,0.106c0.195,0.109,0.323,0.371,0.21,0.564
	c-0.042,0.071-0.11,0.123-0.164,0.188c-0.106,0.125-0.156,0.296-0.283,0.397c-0.114,0.09-0.266,0.109-0.41,0.124
	c-0.375,0.041-0.75,0.081-1.125,0.12c-0.186,0.021-0.375,0.041-0.559,0.001c-0.182-0.038-0.36-0.146-0.434-0.318
	c-0.082-0.191-0.018-0.416,0.091-0.593C27.085,28.629,27.925,28.781,28.656,28.77"/>
<path d="M40.456,26.383c0,0-2.252,1.191-5.753,0.873c0,0-0.52,5.26,3.743,5.26C42.709,32.518,40.456,26.383,40.456,26.383"/>
<path fill="#E3395D" d="M38.688,28.775c0,0,2.635-0.208,2.6,2.356c-0.034,2.564-1.317,3.777-2.6,3.777
	c-1.282,0-2.842-1.469-3.084-3.264C35.362,29.848,37.47,28.595,38.688,28.775"/>
<path fill="#F15B67" d="M40.626,31.563c0.162,0.556,0.017,1.168-0.297,1.651c-0.452,0.695-1.313,1.156-2.124,0.979
	c-0.184-0.039-0.359-0.108-0.534-0.178c-0.137-0.055-0.276-0.109-0.4-0.19c-0.289-0.187-0.477-0.492-0.655-0.787
	c-0.101-0.168-0.204-0.338-0.26-0.524c-0.134-0.451,0.026-0.959,0.342-1.308c0.316-0.351,0.77-0.554,1.232-0.64
	C38.917,30.384,40.287,30.402,40.626,31.563"/>
<g>
	<g>
		<defs>
			<path id="SVGID_1_" d="M85.896,2.667c-2.824,0-5.002,2.199-6.476,6.536l-0.031,0.092L79.366,9.39
				c-0.773,3.137-1.267,5.772-1.49,7.977c-0.24-0.013-0.473-0.02-0.699-0.02c-2.303,0-4.523,0.88-6.601,2.616l-0.102,0.086
				l-0.092,0.097c-2.983,3.156-4.497,6.891-4.497,11.101v0.521c0,1.854,0.413,3.586,1.226,5.147l0.028,0.056l0.031,0.053
				c2.016,3.412,5.142,5.218,9.038,5.218c2.155,0,4.165-0.699,6.002-2.085c1.732,1.673,3.568,2.085,4.952,2.085
				c2.312,0,4.454-1.021,6.381-3.033c1.941,1.989,4.37,3.033,7.107,3.033c3.774,0,6.92-1.494,9.172-4.335
				c0.685-0.024,1.349-0.082,1.988-0.178l-0.002,0.028v0.122c0,0.371,0.034,0.895,0.289,1.416c1.02,2.387,2.92,2.646,3.698,2.646
				h0.298c0.869,0,2.155-0.319,3.35-1.834l0.283-0.357l0.123-0.439c0.862-3.09,1.653-5.474,2.354-7.082l0.008-0.021
				c0.692-1.632,1.276-2.809,1.759-3.654c0.053,3.535,0.266,6.036,0.643,7.619l0.016,0.06l0.018,0.061
				c1.142,3.836,3.953,5.948,7.918,5.948c2.59,0,4.939-0.868,7.012-2.587c1.564,1.422,3.915,2.587,7.408,2.587h1.043
				c2.231,0,4.801-0.522,7.634-1.556l0.037-0.013l0.036-0.017c1.681-0.676,3.314-1.627,4.886-2.832
				c1.333,2.252,3.842,4.416,8.571,4.416c3.627,0,7.572-1.467,11.73-4.357l0.085-0.058l0.078-0.067
				c5.209-4.369,6.253-6.244,6.253-7.853v-0.469l-0.052-0.238c-0.707-3.253-3.134-3.505-3.861-3.505h-0.372
				c-0.938,0-1.832,0.357-2.662,1.061l-0.129,0.108l-0.111,0.126c-0.922,1.051-1.655,1.856-2.178,2.395
				c-3.285,2.963-6.188,4.479-8.634,4.508c-0.557-0.041-1.03-0.113-1.401-0.217c-0.237-0.064-0.349-0.803-0.349-1.46
				c0-1.575,0.427-3.048,1.3-4.493c0.775,2.876,3.073,3.116,3.805,3.116h0.3c1.022,0,1.998-0.436,2.903-1.294l0.301-0.284
				l0.181-0.372c1.044-2.142,1.571-4.307,1.571-6.434c0-0.849-0.084-1.449-0.275-1.949c-0.795-2.625-2.658-4.126-5.128-4.126H172.1
				c-1.813,0-3.888,0.811-6.346,2.479l-0.113,0.077l-0.104,0.091c-0.156,0.135-0.283,0.245-0.388,0.333h-0.233l-0.677,0.736
				c-1.83,1.993-3.172,4.125-3.997,6.35l-0.239,0.129l-0.299,0.393c-0.048,0.064-0.098,0.127-0.146,0.19
				c0.266-0.836,0.357-1.657,0.357-2.394v-0.149c0-1.32-0.329-2.557-0.979-3.674l-0.031-0.052c-1.727-2.804-4.51-4.285-8.045-4.285
				c-1.957,0-4.086,0.825-6.465,2.514c-0.711-0.522-1.551-0.8-2.479-0.8h-0.308l-0.227,0.047c-3.273,0.676-3.529,3.13-3.529,3.866
				v0.521l0.002,0.061c0.019,0.682,0.265,1.48,0.824,2.621c-0.4,0.75-0.742,1.488-1.021,2.205l-0.176,0.178l-0.168,0.411
				c-1.441,3.54-3.062,5.594-4.453,5.663l-0.18-0.015c-0.058-0.251-0.121-0.64-0.154-1.229c-0.07-3.036-0.188-5.318-0.355-6.976
				c-0.197-1.959-0.467-3.036-0.979-3.737c-1.657-3.165-4.168-3.84-6.006-3.84c-1.441,0-2.84,0.454-4.181,1.356
				c-1.015-1.296-2.435-1.431-2.975-1.431h-0.521c-1.627,0-2.714,1.273-3.07,1.691l-0.307,0.359l-0.139,0.45
				c-0.1,0.326-0.293,0.952-0.887,5.757c-0.178-1.471-0.596-2.783-1.248-3.915l-0.086-0.147l-0.105-0.132
				c-1.365-1.715-2.863-2.669-4.455-2.841c-1.73-0.711-3.389-1.072-4.925-1.072c-1.313,0-2.394,0.167-3.287,0.509
				c-0.996,0.191-2.187,0.827-3.929,2.081L94.86,20.91l-0.173,0.197c-1.668,1.912-2.844,3.946-3.503,6.059
				c-0.674,0.622-1.187,1.514-1.534,2.664c-0.98,1.992-1.695,3.04-2.141,3.581c-0.048-0.101-0.1-0.218-0.155-0.351
				c0.085-0.184,0.2-0.422,0.353-0.731l0.049-0.099l0.038-0.104c2.62-6.92,3.948-13.686,3.948-20.106v-0.223
				c0-1.278-0.11-2.625-0.325-4.003l-0.021-0.131l-0.035-0.128c-1.124-4.022-3.311-4.867-4.949-4.867L85.896,2.667L85.896,2.667z"/>
		</defs>
		<clipPath id="SVGID_2_">
			<use xlink:href="#SVGID_1_"  overflow="visible"/>
		</clipPath>
		
			<linearGradient id="SVGID_3_" gradientUnits="userSpaceOnUse" x1="-665.7656" y1="-197.0635" x2="-665.5704" y2="-197.0635" gradientTransform="matrix(0 188.6163 -188.6163 0 -37042.9531 125581.1484)">
			<stop  offset="0" style="stop-color:#24CBAB"/>
			<stop  offset="1" style="stop-color:#1C4B55"/>
		</linearGradient>
		<rect x="65.886" y="2.667" clip-path="url(#SVGID_2_)" fill="url(#SVGID_3_)" width="121.453" height="39.573"/>
	</g>
</g>
<path fill="#FFFFFF" d="M183.425,27.968h-0.372c-0.387,0-0.783,0.173-1.193,0.521c-0.98,1.118-1.752,1.963-2.31,2.533
	c-3.788,3.43-7.216,5.143-10.284,5.143c-0.744-0.049-1.392-0.146-1.938-0.297c-1.342-0.373-2.012-1.592-2.012-3.652
	c0-2.036,0.57-3.974,1.716-5.812c0.919-1.764,2.53-3.055,4.842-3.875c0,0.558-0.297,1.925-0.894,4.098
	c0.197,1.292,0.771,1.938,1.713,1.938h0.3c0.422,0,0.868-0.224,1.342-0.67c0.894-1.838,1.34-3.651,1.34-5.439
	c0-0.584-0.049-0.981-0.147-1.193c-0.496-1.739-1.491-2.608-2.98-2.608H172.1c-1.328,0-3.018,0.696-5.065,2.087
	c-0.687,0.596-1.058,0.895-1.118,0.895c-1.875,2.04-3.146,4.187-3.82,6.438c-0.168,0.063-0.359,0.151-0.576,0.269
	c-3.949,5.217-8.621,7.824-14.011,7.824h-0.149c-3.08,0-4.619-1.066-4.619-3.204v-0.147c0-1.316,0.398-2.758,1.191-4.322
	c2.125,1.391,4.385,2.087,6.781,2.087c1.168,0,2.162-0.175,2.98-0.522c2.634-1.117,3.949-2.881,3.949-5.291v-0.149
	c0-0.919-0.223-1.764-0.67-2.534c-1.318-2.137-3.354-3.205-6.111-3.205c-1.875,0-4.161,1.144-6.855,3.428
	c-0.445-1.142-1.143-1.714-2.087-1.714h-0.073c-1.144,0.236-1.715,0.783-1.715,1.64v0.521c0.014,0.459,0.385,1.354,1.118,2.683
	v0.075c-0.71,1.19-1.253,2.321-1.636,3.395c-0.063,0.057-0.129,0.117-0.189,0.182c-1.926,4.721-4.137,7.079-6.633,7.079
	l-0.895-0.073c-0.97,0-1.518-1.117-1.64-3.354c-0.139-5.937-0.462-9.116-0.969-9.539c-0.92-1.888-2.286-2.831-4.101-2.831
	c-1.924,0-3.813,1.242-5.662,3.726l0.224-1.863c-0.224-1.292-0.796-1.938-1.715-1.938h-0.521c-0.386,0-0.832,0.298-1.341,0.894
	c-0.202,0.657-0.588,3.427-1.155,8.304c-0.045,0.062-0.088,0.124-0.129,0.19c-1.293,1.392-2.785,2.086-4.474,2.086h-0.074
	c0.396-1.366,0.597-2.631,0.597-3.798c0-1.777-0.349-3.267-1.043-4.472c-1.068-1.341-2.138-2.012-3.205-2.012
	c-1.59-0.695-3.056-1.043-4.396-1.043c-1.145,0-2.038,0.149-2.684,0.447c-0.584,0.025-1.65,0.596-3.203,1.714
	c-1.657,1.899-2.737,3.88-3.241,5.946c-0.61,0.275-1.069,0.976-1.379,2.101c-1.789,3.678-3.28,5.516-4.471,5.516
	c-0.895,0-1.689-1.042-2.385-3.13c0-0.136,0.248-0.707,0.745-1.713c2.534-6.695,3.8-13.128,3.8-19.302V11.8
	c0-1.167-0.099-2.384-0.298-3.651c-0.598-2.14-1.517-3.209-2.76-3.209h-0.521c-1.751,0-3.192,1.665-4.322,4.993
	c-1.043,4.235-1.566,7.564-1.566,9.986c-1.092-0.199-2.037-0.298-2.831-0.298c-1.764,0-3.479,0.696-5.142,2.087
	c-2.583,2.732-3.875,5.912-3.875,9.538v0.521c0,1.49,0.322,2.857,0.968,4.1c1.615,2.732,3.975,4.099,7.08,4.099
	c2.285,0,4.371-1.043,6.26-3.13c1.279,2.087,2.844,3.13,4.694,3.13c1.938,0,3.751-1.043,5.44-3.13
	c0.359-0.541,0.687-1.057,0.987-1.543c0.203,0.465,0.444,0.904,0.728,1.318c1.664,2.236,3.775,3.354,6.333,3.354
	c3.49,0,6.174-1.465,8.05-4.397c0.036,0,0.187,0.025,0.446,0.074c1.998,0,3.758-0.324,5.285-0.972
	c-0.111,1.015-0.228,2.08-0.349,3.208c0,0.225,0.022,0.373,0.075,0.446c0.359,0.896,0.906,1.343,1.639,1.343h0.299
	c0.533,0,1.057-0.322,1.564-0.971c0.896-3.203,1.714-5.663,2.46-7.377c1.999-4.719,3.688-7.079,5.065-7.079
	c0.522,0,0.871,0.794,1.045,2.384c0,4.348,0.196,7.354,0.596,9.018c0.857,2.883,2.771,4.322,5.738,4.322
	c2.726,0,5.115-1.227,7.168-3.68c1.477,2.451,3.892,3.68,7.25,3.68h1.043c1.977,0,4.262-0.472,6.856-1.416
	c2.187-0.882,4.272-2.273,6.261-4.174c0.176-0.163,0.342-0.32,0.504-0.477c0.088,0.543,0.217,1.101,0.391,1.668
	c1.179,2.934,3.564,4.397,7.154,4.397c3.166,0,6.644-1.317,10.432-3.948c3.627-3.043,5.439-5.082,5.439-6.112v-0.225
	C184.814,28.539,184.27,27.968,183.425,27.968 M146.537,25.21c1.925-1.64,3.291-2.459,4.102-2.459h0.67
	c1.688,0.211,2.532,0.856,2.532,1.938v0.298c-0.422,1.193-1.44,1.789-3.056,1.789c-1.49,0-2.98-0.422-4.471-1.267L146.537,25.21z
	 M76.283,36.164l-1.267-0.146c-2.037-0.66-3.055-2.101-3.055-4.324c0-1.962,0.421-3.724,1.267-5.291
	c1.229-1.938,2.397-2.907,3.502-2.907h0.969c0.62,0,1.341,0.1,2.161,0.299c0,2.57,0.298,5.501,0.894,8.792
	C79.326,34.973,77.835,36.164,76.283,36.164 M83.734,25.061v-2.533c0-4.422,0.597-8.521,1.789-12.296h0.075
	c0.05,0.857,0.074,1.354,0.074,1.491c0,3.887-0.621,8.334-1.863,13.339L83.734,25.061L83.734,25.061z M100.949,36.164
	c-0.197,0-0.62-0.049-1.268-0.146c-2.037-0.646-3.056-2.188-3.056-4.621c0-1.801,0.672-3.665,2.013-5.589
	c1.166-1.043,2.235-1.565,3.205-1.565c-0.596,1.515-0.896,2.807-0.896,3.875c0,2.771,1.22,4.932,3.652,6.482
	C103.632,35.643,102.415,36.164,100.949,36.164 M107.059,28.787c-0.234,1.59-0.435,2.385-0.596,2.385h-0.074
	c-1.043-0.646-1.563-1.564-1.563-2.757v-0.671c0.222-1.639,0.668-2.458,1.34-2.458h0.147c0.398,0,0.672,0.819,0.82,2.458
	L107.059,28.787z"/>
</svg>
